<svg width="40" height="40" viewBox="0 0 40 40" fill="none" xmlns="http://www.w3.org/2000/svg">
<path d="M40 20C40 31.0457 31.0457 40 20 40C8.9543 40 0 31.0457 0 20C0 8.9543 8.9543 0 20 0C31.0457 0 40 8.9543 40 20Z" fill="#494949"/>
<path d="M29.8715 15.3125C29.8715 13.5545 28.5784 12.1403 26.9805 12.1403C24.8162 12.0391 22.6089 12 20.3531 12H19.6499C17.3996 12 15.1884 12.0391 13.0241 12.1406C11.4301 12.1406 10.137 13.5627 10.137 15.3207C10.0393 16.7111 9.99789 18.1019 10.0002 19.4927C9.99633 20.8835 10.0406 22.2756 10.1331 23.669C10.1331 25.4271 11.4262 26.853 13.0202 26.853C15.2939 26.9585 17.6262 27.0054 19.9976 27.0015C22.3729 27.0093 24.6987 26.9598 26.975 26.853C28.5729 26.853 29.866 25.4271 29.866 23.669C29.9598 22.2743 30.0028 20.8835 29.9989 19.4888C30.0077 18.098 29.9653 16.7059 29.8715 15.3125ZM18.0872 23.3253V15.6485L23.752 19.4849L18.0872 23.3253Z" fill="white"/>
</svg>
