<svg width="40" height="40" viewBox="0 0 40 40" fill="none" xmlns="http://www.w3.org/2000/svg">
<path d="M40 20C40 31.0457 31.0457 40 20 40C8.9543 40 0 31.0457 0 20C0 8.9543 8.9543 0 20 0C31.0457 0 40 8.9543 40 20Z" fill="#494949"/>
<path fill-rule="evenodd" clip-rule="evenodd" d="M30.1208 20.0604C30.1208 14.5047 25.6161 10 20.0604 10C14.5047 10 10 14.5047 10 20.0604C10 25.0816 13.6783 29.2437 18.4885 29.9991V22.9694H15.9334V20.0604H18.4885V17.844C18.4885 15.323 19.9908 13.9294 22.2885 13.9294C23.3893 13.9294 24.5409 14.1261 24.5409 14.1261V16.6021H23.2717C22.0226 16.6021 21.6319 17.3773 21.6319 18.1741V20.0604H24.4219L23.9763 22.9694H21.6323V30C26.4425 29.245 30.1208 25.083 30.1208 20.0604V20.0604Z" fill="white"/>
</svg>
