<svg width="40" height="40" viewBox="0 0 40 40" fill="none" xmlns="http://www.w3.org/2000/svg">
<path d="M40 20C40 31.0457 31.0457 40 20 40C8.9543 40 0 31.0457 0 20C0 8.9543 8.9543 0 20 0C31.0457 0 40 8.9543 40 20Z" fill="#494949"/>
<path d="M30 13.8958C29.2498 14.2218 28.456 14.4366 27.6438 14.5333C28.4974 14.0335 29.1393 13.2394 29.4492 12.3C28.6421 12.7719 27.7606 13.103 26.8425 13.2792C26.4559 12.874 25.9909 12.5516 25.4758 12.3317C24.9607 12.1118 24.4063 11.999 23.8463 12C21.5788 12 19.7438 13.8083 19.7438 16.0375C19.7421 16.3476 19.7777 16.6567 19.8496 16.9583C18.2236 16.8821 16.6315 16.4673 15.175 15.7405C13.7185 15.0137 12.4298 13.9909 11.3913 12.7375C11.0269 13.3517 10.8342 14.0525 10.8333 14.7667C10.8333 16.1667 11.5638 17.4042 12.6667 18.1292C12.0132 18.1137 11.3732 17.9407 10.8008 17.625V17.675C10.8008 19.6333 12.2175 21.2625 14.0925 21.6333C13.7399 21.7273 13.3766 21.775 13.0117 21.775C12.7527 21.7755 12.4944 21.7503 12.2404 21.7C12.7617 23.3042 14.2788 24.4708 16.0758 24.5042C14.6156 25.6296 12.8228 26.2378 10.9792 26.2333C10.6519 26.2329 10.325 26.2134 10 26.175C11.8755 27.3726 14.0556 28.0061 16.2808 28C23.8375 28 27.9658 21.8458 27.9658 16.5083C27.9658 16.3333 27.9613 16.1583 27.9529 15.9875C28.7542 15.4175 29.4474 14.7092 30 13.8958Z" fill="white"/>
</svg>
